<?xml version="1.0" standalone="no"?>
<!DOCTYPE svg PUBLIC "-//W3C//DTD SVG 20010904//EN"
 "http://www.w3.org/TR/2001/REC-SVG-20010904/DTD/svg10.dtd">
<svg version="1.0" xmlns="http://www.w3.org/2000/svg"
 width="351.000000pt" height="300.000000pt" viewBox="0 0 351.000000 300.000000"
 preserveAspectRatio="xMidYMid meet">

<g transform="translate(0.000000,300.000000) scale(0.100000,-0.100000)"
fill="#000000" stroke="none">
<path d="M1605 2850 c-271 -49 -502 -168 -700 -361 -57 -55 -131 -139 -165
-187 -84 -117 -209 -379 -193 -404 2 -5 19 -8 37 -8 30 0 33 4 50 53 27 75
100 219 146 288 180 264 402 422 726 514 295 84 652 47 934 -95 157 -79 320
-215 420 -351 46 -61 56 -69 85 -69 19 0 36 4 39 9 7 11 -44 87 -108 159 -226
254 -498 405 -821 457 -126 20 -324 18 -450 -5z"/>
<path d="M1647 2329 c-24 -14 -47 -62 -47 -100 0 -17 12 -52 26 -78 24 -42 25
-50 15 -88 -7 -24 -15 -43 -19 -43 -19 0 -112 99 -112 119 0 21 -21 43 -89 96
-20 15 -23 16 -12 2 16 -20 2 -23 -19 -4 -12 10 -12 9 -1 -5 13 -18 6 -24 -23
-19 -4 1 13 -23 39 -54 36 -41 54 -55 74 -55 19 0 43 -17 86 -60 l59 -59 -23
-97 c-20 -89 -21 -99 -6 -113 15 -15 17 -14 31 3 8 11 14 32 14 47 0 14 3 47
6 73 l7 46 58 -55 c58 -55 73 -63 84 -45 13 21 -7 46 -73 97 l-69 53 4 57 c3
45 9 63 26 78 36 31 48 52 57 90 19 84 -33 149 -93 114z m-226 -136 c13 -16
12 -17 -3 -4 -10 7 -18 15 -18 17 0 8 8 3 21 -13z m-20 -10 c13 -16 12 -17 -3
-4 -10 7 -18 15 -18 17 0 8 8 3 21 -13z"/>
<path d="M3163 2080 c-19 -11 -33 -28 -33 -39 0 -15 -9 -19 -50 -23 -35 -4
-59 -13 -77 -29 -32 -30 -70 -110 -79 -164 -6 -42 -69 -146 -93 -153 -12 -4
-13 14 -6 109 8 124 9 149 1 156 -8 9 -43 -7 -70 -32 -24 -22 -26 -31 -26
-105 0 -66 -4 -89 -25 -128 -24 -47 -49 -82 -56 -82 -2 0 -4 38 -4 84 0 70 -4
89 -21 113 -36 48 -102 43 -134 -10 -11 -17 -20 -26 -20 -19 0 19 -34 14 -64
-9 -24 -19 -26 -26 -26 -95 0 -61 -4 -78 -20 -94 -30 -30 -43 -24 -70 33 -20
41 -32 54 -57 61 -43 12 -76 2 -119 -37 -45 -39 -69 -92 -79 -172 -8 -67 -27
-112 -59 -137 -57 -47 -69 -1 -65 255 4 228 3 234 -63 173 l-38 -35 0 -119 0
-119 -39 -7 c-66 -10 -140 -111 -141 -191 0 -26 -10 -39 -38 -54 -28 -15 -39
-9 -47 28 -7 35 -49 79 -81 87 -14 4 -42 -3 -69 -16 -56 -27 -101 -99 -111
-177 -5 -39 -12 -56 -30 -68 -32 -21 -44 -19 -44 9 0 12 -10 38 -23 57 -19 28
-30 35 -64 37 -24 2 -55 -4 -72 -12 -58 -31 -111 -128 -111 -205 1 -53 33
-117 69 -135 42 -22 61 -20 109 11 44 29 92 106 92 148 0 16 9 23 40 32 39 10
42 9 74 -23 42 -42 81 -44 136 -8 41 28 90 109 90 151 0 15 6 23 18 23 9 1 28
7 41 14 23 13 26 11 46 -18 24 -35 61 -52 97 -43 30 8 77 53 89 86 9 22 11 23
28 7 9 -9 31 -16 48 -16 38 0 97 55 120 111 8 21 17 39 20 39 3 0 16 -9 30
-20 34 -27 88 -26 130 3 33 22 93 120 93 151 0 9 6 16 13 16 6 0 22 3 35 6 22
6 22 5 22 -87 0 -52 3 -104 6 -116 7 -27 30 -29 62 -7 19 13 22 24 22 83 l0
68 46 13 c51 15 134 79 179 139 l30 40 21 -26 c18 -22 25 -25 57 -19 42 8 102
71 112 117 9 39 23 45 46 20 43 -46 104 -36 144 25 18 28 24 30 63 26 37 -4
47 -1 74 24 36 35 98 157 98 196 0 50 -19 39 -35 -21 -18 -63 -66 -131 -92
-131 -16 0 -16 19 0 239 3 32 -11 35 -50 11z m-45 -152 c4 -51 -15 -116 -43
-144 -31 -31 -50 -30 -71 1 -25 39 -10 101 37 148 48 48 73 46 77 -5z m-554
-240 c17 -49 -36 -168 -78 -176 -17 -4 -18 2 -14 61 6 73 42 150 67 145 9 -2
20 -15 25 -30z m-364 -125 c0 -9 12 -29 26 -44 30 -31 28 -65 -6 -99 -63 -63
-130 32 -85 120 21 40 65 56 65 23z m-395 -245 c-7 -72 -31 -113 -66 -113 -20
0 -24 6 -27 37 -5 56 45 138 84 138 13 0 15 -10 9 -62z m-358 -85 c3 -10 17
-30 31 -45 18 -20 23 -33 18 -53 -13 -53 -77 -85 -104 -52 -30 37 -26 108 9
145 24 27 38 28 46 5z m-337 -148 c0 -7 11 -27 25 -43 14 -17 25 -35 25 -41 0
-27 -31 -69 -61 -81 -30 -13 -33 -12 -51 11 -30 36 -21 124 16 156 28 24 46
23 46 -2z"/>
<path d="M2740 2058 c-25 -42 -25 -74 0 -88 31 -17 71 8 88 52 18 46 5 68 -39
68 -22 0 -34 -8 -49 -32z"/>
<path d="M563 1597 c12 -13 24 -22 26 -20 6 4 -30 43 -40 43 -5 0 2 -10 14
-23z"/>
<path d="M420 1600 c0 -6 8 -10 18 -10 25 0 69 -48 86 -95 14 -38 15 -38 15
-11 1 35 -30 88 -61 103 -39 19 -58 23 -58 13z"/>
<path d="M3147 1593 c-4 -3 -7 -50 -7 -103 0 -461 -282 -910 -705 -1122 -380
-191 -842 -179 -1203 29 -123 72 -196 128 -298 231 l-92 93 -16 -23 c-9 -12
-16 -29 -16 -36 0 -19 111 -133 199 -203 170 -138 329 -215 551 -270 82 -20
121 -23 290 -23 209 -1 280 9 436 60 347 113 635 370 804 718 27 55 61 141 75
190 29 103 55 285 55 392 l0 74 -33 0 c-19 0 -37 -3 -40 -7z"/>
<path d="M292 1545 c-17 -9 -20 -14 -9 -18 8 -3 17 -18 20 -34 6 -32 57 -93
77 -93 7 0 -3 17 -23 39 -34 38 -55 91 -42 111 7 12 7 12 -23 -5z"/>
<path d="M192 1470 c0 -14 2 -19 5 -12 2 6 2 18 0 25 -3 6 -5 1 -5 -13z"/>
<path d="M246 1474 c-3 -8 1 -28 9 -45 21 -39 27 -37 11 4 -7 17 -11 38 -9 45
7 18 -4 15 -11 -4z"/>
<path d="M672 1420 c0 -19 2 -27 5 -17 2 9 2 25 0 35 -3 9 -5 1 -5 -18z"/>
<path d="M1018 1385 c-11 -20 -34 -43 -50 -51 -24 -13 -193 -54 -220 -54 -5 0
-16 16 -24 36 -16 39 -44 73 -44 55 0 -20 -29 -11 -36 12 -7 21 -8 20 -14 -8
-8 -45 -45 -47 -65 -3 l-15 33 6 -41 c5 -39 3 -42 -27 -54 -29 -13 -33 -12
-50 8 -24 30 -33 28 -13 -3 13 -20 14 -28 4 -40 -18 -22 -35 -19 -75 16 -47
41 -45 22 2 -21 21 -20 32 -35 25 -38 -8 -2 -2 -18 18 -45 35 -48 36 -53 13
-98 -22 -43 -21 -110 1 -144 10 -15 34 -33 53 -42 31 -13 41 -13 79 0 44 14
44 14 44 -9 0 -16 -10 -28 -30 -39 -45 -23 -71 -84 -30 -71 11 3 29 9 40 12
17 5 20 2 20 -27 0 -19 -7 -61 -14 -94 -22 -91 -78 -129 -134 -89 -20 14 -22
14 -22 -1 0 -25 28 -72 52 -89 70 -49 165 10 187 116 7 32 11 90 10 130 l-2
73 73 5 c63 4 75 8 91 30 21 28 30 121 13 127 -6 2 -16 -8 -22 -21 -14 -32
-56 -53 -112 -58 l-45 -3 -3 42 c-3 38 3 81 24 176 5 21 3 27 -10 27 -22 0
-55 -55 -63 -105 -14 -86 -101 -124 -146 -63 -38 51 2 137 85 179 44 22 160
39 198 28 36 -10 129 -10 174 0 52 13 101 63 115 116 6 24 9 50 7 57 -2 7 -7
25 -10 41 -9 37 -33 34 -58 -8z"/>
</g>
</svg>
